<svg width="268" height="159" viewBox="0 0 268 159" fill="none" xmlns="http://www.w3.org/2000/svg">
<path d="M50.816 81.04C53.0347 84.9653 55.0827 88.6347 56.96 92.048C58.8373 95.376 60.8427 99.0453 62.976 103.056C63.744 104.336 64.4267 105.232 65.024 105.744C65.7067 106.171 66.5173 106.384 67.456 106.384C67.8827 106.384 68.1813 106.384 68.352 106.384C68.608 106.384 68.9067 106.384 69.248 106.384H71.68C71.68 108.944 71.68 111.333 71.68 113.552C71.68 115.685 71.68 118.032 71.68 120.592C71.68 121.019 71.552 121.36 71.296 121.616C71.04 121.872 70.6987 122 70.272 122C69.6747 122 68.864 122 67.84 122C66.9013 122 66.0053 122 65.152 122C62.2507 122 59.8187 121.787 57.856 121.36C55.8933 120.848 54.1867 119.995 52.736 118.8C51.3707 117.52 50.0907 115.771 48.896 113.552C46.6773 109.2 44.4587 104.891 42.24 100.624C40.1067 96.272 37.9307 91.9627 35.712 87.696L50.816 81.04ZM3.84 32.4C9.728 32.4 15.616 32.4 21.504 32.4C27.392 32.4 33.28 32.4 39.168 32.4C44.3733 32.4 48.8107 32.9973 52.48 34.192C56.1493 35.3867 59.136 37.1787 61.44 39.568C63.744 41.872 65.408 44.6453 66.432 47.888C67.5413 51.1307 68.096 54.7573 68.096 58.768V65.936C68.096 69.8613 67.4987 73.4027 66.304 76.56C65.1093 79.632 63.36 82.2773 61.056 84.496C58.8373 86.6293 56.1067 88.2507 52.864 89.36C49.6213 90.4693 45.952 91.024 41.856 91.024C39.296 91.024 36.6933 91.024 34.048 91.024C31.488 91.024 28.8853 91.024 26.24 91.024L24.832 91.792V75.92C27.3067 75.92 29.7813 75.92 32.256 75.92C34.816 75.92 37.3333 75.92 39.808 75.92C42.1973 75.92 44.16 75.5787 45.696 74.896C47.232 74.2133 48.3413 73.1467 49.024 71.696C49.792 70.16 50.176 68.3253 50.176 66.192V57.872C50.176 56.2507 49.9627 54.8427 49.536 53.648C49.1947 52.4533 48.5973 51.4293 47.744 50.576C46.976 49.808 45.9093 49.2107 44.544 48.784C43.264 48.272 41.6853 48.016 39.808 48.016C35.968 48.016 32.0853 48.016 28.16 48.016C24.32 48.016 20.48 48.016 16.64 48.016C12.8853 48.016 9.088 48.016 5.248 48.016C4.82133 48.016 4.48 47.888 4.224 47.632C3.968 47.376 3.84 47.0347 3.84 46.608C3.84 44.1333 3.84 41.7867 3.84 39.568C3.84 37.264 3.84 34.8747 3.84 32.4ZM27.904 122C25.088 122 22.3573 122 19.712 122C17.152 122 14.4213 122 11.52 122C11.0933 122 10.752 121.872 10.496 121.616C10.24 121.36 10.112 121.019 10.112 120.592C10.112 113.68 10.112 107.024 10.112 100.624C10.112 94.1387 10.112 87.696 10.112 81.296C10.112 74.896 10.112 68.4533 10.112 61.968C10.112 55.3973 10.112 48.7413 10.112 42H29.44L27.904 45.456C27.904 48.272 27.904 51.088 27.904 53.904C27.904 56.6347 27.904 59.28 27.904 61.84C27.904 67.1307 27.904 72.336 27.904 77.456C27.904 82.4907 27.904 87.6533 27.904 92.944C27.904 98.1493 27.904 103.653 27.904 109.456C27.904 111.76 27.904 113.979 27.904 116.112C27.904 118.245 27.904 120.208 27.904 122ZM105.294 122C102.478 122 99.662 122 96.846 122C94.03 122 91.1713 122 88.27 122C87.8433 122 87.502 121.872 87.246 121.616C86.99 121.36 86.862 121.019 86.862 120.592C86.862 113.68 86.862 107.024 86.862 100.624C86.862 94.1387 86.862 87.696 86.862 81.296C86.862 74.896 86.862 68.4533 86.862 61.968C86.862 55.3973 86.862 48.7413 86.862 42H106.702L105.294 45.456C105.294 47.76 105.294 49.936 105.294 51.984C105.294 53.9467 105.294 55.9947 105.294 58.128C105.294 63.6747 105.294 69.264 105.294 74.896C105.294 80.4427 105.294 86.0747 105.294 91.792C105.294 97.424 105.294 103.312 105.294 109.456C105.294 111.76 105.294 113.979 105.294 116.112C105.294 118.245 105.294 120.208 105.294 122ZM80.59 32.4C86.3927 32.4 92.5367 32.4 99.022 32.4C105.507 32.4 111.353 32.4 116.558 32.4C120.739 32.4 124.451 32.784 127.694 33.552C130.937 34.32 133.71 35.472 136.014 37.008C138.403 38.4587 140.323 40.2933 141.774 42.512C143.31 44.6453 144.462 47.1627 145.23 50.064C145.998 52.88 146.382 56.0373 146.382 59.536V67.344C146.382 71.6107 145.827 75.4507 144.718 78.864C143.609 82.192 141.859 85.0507 139.47 87.44C137.166 89.744 134.094 91.536 130.254 92.816C126.499 94.0107 121.977 94.608 116.686 94.608C114.467 94.608 112.206 94.608 109.902 94.608C107.598 94.608 105.294 94.608 102.99 94.608L101.582 95.12V78.992C104.398 78.992 107.129 78.992 109.774 78.992C112.419 78.992 114.723 78.992 116.686 78.992C118.563 78.992 120.185 78.7787 121.55 78.352C123.001 77.9253 124.195 77.2853 125.134 76.432C126.073 75.5787 126.755 74.4693 127.182 73.104C127.609 71.7387 127.822 70.032 127.822 67.984V58.64C127.822 56.6773 127.609 55.056 127.182 53.776C126.841 52.4107 126.243 51.3013 125.39 50.448C124.537 49.5093 123.385 48.8693 121.934 48.528C120.483 48.1013 118.734 47.888 116.686 47.888C112.931 47.888 109.091 47.888 105.166 47.888C101.241 47.888 97.3153 47.888 93.39 47.888C89.4647 47.888 85.6673 47.888 81.998 47.888C81.5713 47.888 81.23 47.76 80.974 47.504C80.718 47.248 80.59 46.9067 80.59 46.48C80.59 44.0053 80.59 41.6587 80.59 39.44C80.59 37.2213 80.59 34.8747 80.59 32.4ZM192.412 72.976H224.412C224.839 72.976 225.137 73.0613 225.308 73.232C225.479 73.3173 225.607 73.4453 225.692 73.616C225.863 73.7867 225.948 74.0427 225.948 74.384V88.08H193.948C193.607 88.08 193.351 88.08 193.18 88.08C193.009 87.9947 192.839 87.9093 192.668 87.824C192.583 87.6533 192.497 87.4827 192.412 87.312C192.412 87.1413 192.412 86.928 192.412 86.672C192.412 84.368 192.412 82.1067 192.412 79.888C192.412 77.584 192.412 75.28 192.412 72.976ZM195.74 29.84C198.812 29.84 201.628 30.096 204.188 30.608C206.833 31.0347 209.18 31.632 211.228 32.4C213.361 33.168 215.196 34.0213 216.732 34.96C218.268 35.8987 219.505 36.88 220.444 37.904C220.785 38.16 220.999 38.4587 221.084 38.8C221.169 39.1413 221.212 39.568 221.212 40.08C221.212 41.7013 221.212 43.5787 221.212 45.712C221.212 47.76 221.212 49.8507 221.212 51.984C221.212 54.032 221.212 56.0373 221.212 58C218.737 58 216.263 58 213.788 58C211.313 58 208.839 58 206.364 58C205.937 58 205.596 57.872 205.34 57.616C205.084 57.36 204.956 57.0187 204.956 56.592C204.956 55.4827 204.956 54.3733 204.956 53.264C204.956 52.0693 204.956 50.7893 204.956 49.424C204.956 47.9733 204.956 46.3093 204.956 44.432L208.54 49.936C206.492 48.5707 204.444 47.632 202.396 47.12C200.433 46.608 198.129 46.352 195.484 46.352C192.924 46.352 190.577 46.6933 188.444 47.376C186.396 48.0587 184.647 49.168 183.196 50.704C181.831 52.1547 180.764 53.9893 179.996 56.208C179.228 58.4267 178.844 61.072 178.844 64.144V91.408C178.844 94.3093 179.185 96.8693 179.868 99.088C180.636 101.307 181.703 103.099 183.068 104.464C184.433 105.829 186.012 106.853 187.804 107.536C189.596 108.133 191.601 108.432 193.82 108.432C196.295 108.432 198.343 108.261 199.964 107.92C201.585 107.579 202.823 107.237 203.676 106.896C204.529 106.469 204.956 106.256 204.956 106.256C204.956 103.525 204.956 100.837 204.956 98.192C204.956 95.5467 204.956 92.944 204.956 90.384C204.956 87.7387 204.956 85.1787 204.956 82.704H221.852L221.212 85.776C221.212 90.2133 221.212 95.0773 221.212 100.368C221.212 105.659 221.212 110.779 221.212 115.728C221.212 115.899 221.169 116.069 221.084 116.24C221.084 116.411 220.999 116.581 220.828 116.752C219.548 118.032 217.543 119.312 214.812 120.592C212.081 121.787 208.924 122.725 205.34 123.408C201.841 124.176 198.129 124.56 194.204 124.56C188.572 124.56 183.623 123.792 179.356 122.256C175.089 120.72 171.548 118.501 168.732 115.6C166.001 112.699 163.911 109.243 162.46 105.232C161.095 101.136 160.412 96.5707 160.412 91.536V63.632C160.412 58.5973 161.18 54.032 162.716 49.936C164.252 45.84 166.513 42.2987 169.5 39.312C172.572 36.24 176.284 33.8933 180.636 32.272C185.073 30.6507 190.108 29.84 195.74 29.84Z" fill="#0E0C07" fill-opacity="0.2"/>
<path d="M135.048 133C134.387 133 133.725 133 133.064 133C132.403 133 131.741 133 131.08 133C131.016 133 130.952 132.989 130.888 132.968C130.845 132.925 130.803 132.883 130.76 132.84C130.739 132.797 130.728 132.733 130.728 132.648C130.728 131.069 130.728 129.501 130.728 127.944C130.728 126.365 130.728 124.797 130.728 123.24C130.728 121.661 130.728 120.083 130.728 118.504C130.728 116.925 130.728 115.357 130.728 113.8C130.728 113.267 130.728 112.733 130.728 112.2C130.728 111.667 130.728 111.133 130.728 110.6C131.155 110.6 131.592 110.6 132.04 110.6C132.509 110.6 132.979 110.6 133.448 110.6C133.917 110.6 134.376 110.6 134.824 110.6C134.909 110.6 134.984 110.632 135.048 110.696C135.112 110.739 135.176 110.835 135.24 110.984C135.325 111.112 135.432 111.336 135.56 111.656C135.859 112.403 136.125 113.085 136.36 113.704C136.595 114.323 136.808 114.931 137 115.528C137.192 116.125 137.373 116.755 137.544 117.416C137.715 118.077 137.885 118.824 138.056 119.656C138.227 120.488 138.397 121.448 138.568 122.536L137.544 121.128H139.688L138.664 122.536C138.835 121.448 138.995 120.488 139.144 119.656C139.315 118.824 139.485 118.056 139.656 117.352C139.848 116.648 140.051 115.965 140.264 115.304C140.499 114.621 140.755 113.907 141.032 113.16C141.331 112.392 141.683 111.539 142.088 110.6C142.536 110.6 142.984 110.6 143.432 110.6C143.901 110.6 144.36 110.6 144.808 110.6C145.256 110.6 145.704 110.6 146.152 110.6C146.216 110.6 146.269 110.621 146.312 110.664C146.376 110.685 146.419 110.717 146.44 110.76C146.461 110.803 146.472 110.867 146.472 110.952C146.472 111.869 146.472 112.819 146.472 113.8C146.472 114.781 146.472 115.805 146.472 116.872C146.472 117.917 146.472 118.984 146.472 120.072C146.472 121.16 146.472 122.248 146.472 123.336C146.472 124.424 146.472 125.523 146.472 126.632C146.472 127.72 146.472 128.787 146.472 129.832C146.472 130.173 146.472 130.525 146.472 130.888C146.472 131.229 146.472 131.581 146.472 131.944C146.472 132.285 146.472 132.637 146.472 133C145.811 133 145.149 133 144.488 133C143.827 133 143.165 133 142.504 133C142.44 133 142.376 132.989 142.312 132.968C142.269 132.925 142.227 132.883 142.184 132.84C142.163 132.797 142.152 132.733 142.152 132.648C142.152 132.179 142.152 131.731 142.152 131.304C142.152 130.856 142.152 130.408 142.152 129.96C142.152 129.491 142.152 129.043 142.152 128.616C142.152 128.253 142.152 127.88 142.152 127.496C142.173 127.112 142.205 126.685 142.248 126.216C142.291 125.725 142.333 125.192 142.376 124.616C142.44 124.019 142.515 123.347 142.6 122.6C142.707 121.832 142.824 120.989 142.952 120.072C143.101 119.155 143.272 118.12 143.464 116.968L144.008 117.864H141.832L143.08 117.032C142.803 117.821 142.525 118.611 142.248 119.4C141.971 120.189 141.683 120.968 141.384 121.736C141.107 122.504 140.819 123.272 140.52 124.04C140.243 124.808 139.965 125.576 139.688 126.344C139.432 127.112 139.155 127.88 138.856 128.648C138.771 128.648 138.685 128.648 138.6 128.648C138.536 128.648 138.461 128.648 138.376 128.648C138.291 128.648 138.216 128.637 138.152 128.616C138.088 128.573 138.035 128.499 137.992 128.392C137.757 127.709 137.512 127.016 137.256 126.312C137.021 125.587 136.776 124.84 136.52 124.072C136.264 123.283 135.997 122.504 135.72 121.736C135.464 120.947 135.197 120.157 134.92 119.368C134.664 118.579 134.408 117.789 134.152 117L135.4 117.864H133.224L133.736 116.968C133.928 118.099 134.088 119.123 134.216 120.04C134.365 120.957 134.483 121.789 134.568 122.536C134.675 123.261 134.76 123.923 134.824 124.52C134.888 125.117 134.931 125.661 134.952 126.152C134.995 126.643 135.016 127.091 135.016 127.496C135.037 127.88 135.048 128.253 135.048 128.616C135.048 129.341 135.048 130.077 135.048 130.824C135.048 131.549 135.048 132.275 135.048 133ZM164.508 122.088C164.508 122.621 164.508 123.144 164.508 123.656C164.508 124.147 164.508 124.659 164.508 125.192C164.508 125.704 164.508 126.227 164.508 126.76C164.508 127.272 164.508 127.773 164.508 128.264C164.508 128.435 164.518 128.584 164.54 128.712C164.582 128.84 164.646 128.947 164.732 129.032C164.796 129.096 164.881 129.149 164.988 129.192C165.116 129.213 165.254 129.224 165.404 129.224C165.468 129.224 165.521 129.224 165.564 129.224C165.628 129.224 165.692 129.224 165.756 129.224H166.364C166.364 129.8 166.364 130.376 166.364 130.952C166.364 131.507 166.364 132.072 166.364 132.648C166.364 132.755 166.332 132.84 166.267 132.904C166.204 132.968 166.118 133 166.012 133C165.905 133 165.638 133 165.212 133C164.806 133 164.444 133 164.124 133C163.526 133 162.993 132.904 162.524 132.712C162.054 132.52 161.638 132.253 161.276 131.912C160.913 131.549 160.636 131.123 160.444 130.632C160.252 130.141 160.156 129.587 160.156 128.968C160.156 128.307 160.156 127.635 160.156 126.952C160.156 126.269 160.156 125.597 160.156 124.936C160.156 124.573 160.156 124.232 160.156 123.912C160.156 123.571 160.156 123.229 160.156 122.888C160.156 122.547 160.156 122.205 160.156 121.864C160.156 121.245 160.049 120.765 159.836 120.424C159.644 120.061 159.302 119.805 158.812 119.656C158.321 119.507 157.67 119.432 156.86 119.432C156.262 119.432 155.676 119.464 155.1 119.528C154.545 119.592 153.99 119.677 153.436 119.784C152.902 119.891 152.358 120.04 151.804 120.232H151.196C151.196 119.656 151.196 119.08 151.196 118.504C151.196 117.928 151.196 117.363 151.196 116.808C151.196 116.723 151.206 116.659 151.228 116.616C151.249 116.573 151.27 116.541 151.292 116.52C151.42 116.392 151.772 116.243 152.348 116.072C152.945 115.901 153.649 115.763 154.46 115.656C155.27 115.528 156.07 115.464 156.86 115.464C158.204 115.464 159.356 115.592 160.316 115.848C161.276 116.083 162.065 116.467 162.684 117C163.302 117.533 163.761 118.227 164.06 119.08C164.358 119.912 164.508 120.915 164.508 122.088ZM154.268 128.136C154.268 128.584 154.385 128.925 154.62 129.16C154.876 129.373 155.26 129.48 155.772 129.48C156.348 129.48 156.913 129.416 157.468 129.288C158.022 129.16 158.566 128.947 159.1 128.648C159.654 128.349 160.209 127.965 160.764 127.496V130.248H159.804C159.526 130.888 159.132 131.443 158.62 131.912C158.129 132.36 157.553 132.712 156.892 132.968C156.23 133.203 155.505 133.32 154.716 133.32C153.734 133.32 152.881 133.128 152.156 132.744C151.452 132.36 150.908 131.827 150.524 131.144C150.14 130.44 149.948 129.629 149.948 128.712V127.592C149.948 126.888 150.065 126.259 150.299 125.704C150.534 125.149 150.865 124.669 151.292 124.264C151.74 123.859 152.273 123.549 152.891 123.336C153.51 123.101 154.204 122.984 154.972 122.984C155.718 122.984 156.444 122.984 157.148 122.984C157.873 122.984 158.556 122.984 159.196 122.984C159.857 122.984 160.476 122.984 161.052 122.984C161.244 122.984 161.382 123.155 161.468 123.496C161.574 123.837 161.638 124.221 161.66 124.648C161.681 125.053 161.692 125.395 161.692 125.672C161.009 125.672 160.348 125.672 159.708 125.672C159.068 125.672 158.417 125.672 157.756 125.672C157.116 125.672 156.454 125.672 155.772 125.672C155.516 125.672 155.292 125.704 155.1 125.768C154.929 125.832 154.78 125.928 154.652 126.056C154.545 126.184 154.449 126.333 154.364 126.504C154.3 126.653 154.268 126.824 154.268 127.016V128.136ZM184.431 133C183.727 133 183.066 133 182.447 133C181.85 133 181.188 133 180.463 133C180.399 133 180.335 132.989 180.271 132.968C180.228 132.925 180.186 132.883 180.143 132.84C180.122 132.797 180.111 132.733 180.111 132.648C180.111 131.389 180.111 130.131 180.111 128.872C180.111 127.592 180.111 126.323 180.111 125.064C180.111 123.805 180.111 122.547 180.111 121.288C180.111 120.712 179.983 120.285 179.727 120.008C179.471 119.731 179.066 119.592 178.511 119.592C178.148 119.592 177.743 119.656 177.295 119.784C176.868 119.891 176.431 120.061 175.983 120.296C175.556 120.509 175.14 120.787 174.735 121.128C174.33 121.469 173.956 121.875 173.615 122.344V118.568H174.735C175.162 117.928 175.631 117.373 176.143 116.904C176.676 116.435 177.252 116.072 177.871 115.816C178.511 115.539 179.194 115.4 179.919 115.4C180.602 115.4 181.22 115.517 181.775 115.752C182.351 115.965 182.831 116.296 183.215 116.744C183.62 117.171 183.919 117.693 184.111 118.312C184.324 118.931 184.431 119.624 184.431 120.392C184.431 121.416 184.431 122.451 184.431 123.496C184.431 124.541 184.431 125.587 184.431 126.632C184.431 127.677 184.431 128.733 184.431 129.8C184.431 130.333 184.431 130.867 184.431 131.4C184.431 131.933 184.431 132.467 184.431 133ZM174.127 133C173.658 133 173.21 133 172.783 133C172.378 133 171.951 133 171.503 133C171.076 133 170.628 133 170.159 133C170.095 133 170.042 133 169.999 133C169.956 132.979 169.914 132.957 169.871 132.936C169.85 132.893 169.828 132.851 169.807 132.808C169.807 132.765 169.807 132.712 169.807 132.648C169.807 131.496 169.807 130.355 169.807 129.224C169.807 128.072 169.807 126.931 169.807 125.8C169.807 124.648 169.807 123.507 169.807 122.376C169.807 121.224 169.807 120.072 169.807 118.92C169.807 118.323 169.807 117.757 169.807 117.224C169.807 116.691 169.807 116.211 169.807 115.784C170.34 115.784 170.82 115.784 171.247 115.784C171.695 115.784 172.122 115.784 172.527 115.784C172.954 115.784 173.37 115.784 173.775 115.784C173.86 115.784 173.924 115.805 173.967 115.848C174.01 115.869 174.042 115.901 174.063 115.944C174.106 115.987 174.127 116.051 174.127 116.136C174.127 117.992 174.127 119.859 174.127 121.736C174.127 123.613 174.127 125.491 174.127 127.368C174.127 129.245 174.127 131.123 174.127 133ZM202.883 122.088C202.883 122.621 202.883 123.144 202.883 123.656C202.883 124.147 202.883 124.659 202.883 125.192C202.883 125.704 202.883 126.227 202.883 126.76C202.883 127.272 202.883 127.773 202.883 128.264C202.883 128.435 202.893 128.584 202.915 128.712C202.957 128.84 203.021 128.947 203.107 129.032C203.171 129.096 203.256 129.149 203.363 129.192C203.491 129.213 203.629 129.224 203.779 129.224C203.843 129.224 203.896 129.224 203.939 129.224C204.003 129.224 204.067 129.224 204.131 129.224H204.739C204.739 129.8 204.739 130.376 204.739 130.952C204.739 131.507 204.739 132.072 204.739 132.648C204.739 132.755 204.707 132.84 204.642 132.904C204.579 132.968 204.493 133 204.387 133C204.28 133 204.013 133 203.587 133C203.181 133 202.819 133 202.499 133C201.901 133 201.368 132.904 200.899 132.712C200.429 132.52 200.013 132.253 199.651 131.912C199.288 131.549 199.011 131.123 198.819 130.632C198.627 130.141 198.531 129.587 198.531 128.968C198.531 128.307 198.531 127.635 198.531 126.952C198.531 126.269 198.531 125.597 198.531 124.936C198.531 124.573 198.531 124.232 198.531 123.912C198.531 123.571 198.531 123.229 198.531 122.888C198.531 122.547 198.531 122.205 198.531 121.864C198.531 121.245 198.424 120.765 198.211 120.424C198.019 120.061 197.677 119.805 197.187 119.656C196.696 119.507 196.045 119.432 195.235 119.432C194.637 119.432 194.051 119.464 193.475 119.528C192.92 119.592 192.365 119.677 191.811 119.784C191.277 119.891 190.733 120.04 190.179 120.232H189.571C189.571 119.656 189.571 119.08 189.571 118.504C189.571 117.928 189.571 117.363 189.571 116.808C189.571 116.723 189.581 116.659 189.603 116.616C189.624 116.573 189.645 116.541 189.667 116.52C189.795 116.392 190.147 116.243 190.723 116.072C191.32 115.901 192.024 115.763 192.835 115.656C193.645 115.528 194.445 115.464 195.235 115.464C196.579 115.464 197.731 115.592 198.691 115.848C199.651 116.083 200.44 116.467 201.059 117C201.677 117.533 202.136 118.227 202.435 119.08C202.733 119.912 202.883 120.915 202.883 122.088ZM192.643 128.136C192.643 128.584 192.76 128.925 192.995 129.16C193.251 129.373 193.635 129.48 194.147 129.48C194.723 129.48 195.288 129.416 195.843 129.288C196.397 129.16 196.941 128.947 197.475 128.648C198.029 128.349 198.584 127.965 199.139 127.496V130.248H198.179C197.901 130.888 197.507 131.443 196.995 131.912C196.504 132.36 195.928 132.712 195.267 132.968C194.605 133.203 193.88 133.32 193.091 133.32C192.109 133.32 191.256 133.128 190.531 132.744C189.827 132.36 189.283 131.827 188.899 131.144C188.515 130.44 188.323 129.629 188.323 128.712V127.592C188.323 126.888 188.44 126.259 188.674 125.704C188.909 125.149 189.24 124.669 189.667 124.264C190.115 123.859 190.648 123.549 191.266 123.336C191.885 123.101 192.579 122.984 193.347 122.984C194.093 122.984 194.819 122.984 195.523 122.984C196.248 122.984 196.931 122.984 197.571 122.984C198.232 122.984 198.851 122.984 199.427 122.984C199.619 122.984 199.757 123.155 199.843 123.496C199.949 123.837 200.013 124.221 200.035 124.648C200.056 125.053 200.067 125.395 200.067 125.672C199.384 125.672 198.723 125.672 198.083 125.672C197.443 125.672 196.792 125.672 196.131 125.672C195.491 125.672 194.829 125.672 194.147 125.672C193.891 125.672 193.667 125.704 193.475 125.768C193.304 125.832 193.155 125.928 193.027 126.056C192.92 126.184 192.824 126.333 192.739 126.504C192.675 126.653 192.643 126.824 192.643 127.016V128.136ZM217.91 116.584L218.998 115.144C219.083 115.016 219.137 114.909 219.158 114.824C219.179 114.717 219.19 114.579 219.19 114.408C219.19 113.896 219.19 113.565 219.19 113.416C219.19 113.245 219.19 113.075 219.19 112.904C219.894 112.904 220.662 112.904 221.494 112.904C222.326 112.904 223.094 112.904 223.798 112.904C223.905 112.904 223.99 112.936 224.054 113C224.118 113.064 224.15 113.149 224.15 113.256V115.624C224.15 115.837 224.118 115.997 224.054 116.104C223.99 116.211 223.809 116.296 223.51 116.36C223.233 116.403 222.785 116.477 222.166 116.584L220.63 116.84V117.896L217.91 116.584ZM214.838 115.432C216.417 115.432 217.75 115.656 218.838 116.104C219.926 116.552 220.747 117.203 221.302 118.056C221.878 118.888 222.166 119.891 222.166 121.064V121.768C222.166 122.92 221.878 123.923 221.302 124.776C220.747 125.629 219.926 126.28 218.838 126.728C217.75 127.176 216.417 127.4 214.838 127.4C213.259 127.4 211.926 127.176 210.838 126.728C209.75 126.28 208.918 125.629 208.342 124.776C207.787 123.923 207.51 122.92 207.51 121.768V121.064C207.51 119.891 207.787 118.888 208.342 118.056C208.918 117.203 209.75 116.552 210.838 116.104C211.926 115.656 213.259 115.432 214.838 115.432ZM214.838 118.76C213.835 118.76 213.057 118.952 212.502 119.336C211.969 119.72 211.702 120.296 211.702 121.064V121.768C211.702 122.088 211.745 122.376 211.83 122.632C211.937 122.867 212.086 123.08 212.278 123.272C212.534 123.528 212.875 123.731 213.302 123.88C213.75 124.008 214.262 124.072 214.838 124.072C215.862 124.072 216.641 123.88 217.174 123.496C217.707 123.091 217.974 122.515 217.974 121.768V121.064C217.974 120.723 217.921 120.435 217.814 120.2C217.729 119.944 217.579 119.709 217.366 119.496C217.131 119.261 216.801 119.08 216.374 118.952C215.947 118.824 215.435 118.76 214.838 118.76ZM211.67 126.248L213.686 126.344C213.601 127.069 213.537 127.645 213.494 128.072C213.473 128.499 213.462 128.883 213.462 129.224C213.462 129.48 213.515 129.661 213.622 129.768C213.729 129.853 213.91 129.896 214.166 129.896H218.294C219.553 129.896 220.587 130.109 221.398 130.536C222.209 130.963 222.806 131.56 223.19 132.328C223.595 133.075 223.798 133.939 223.798 134.92V136.104C223.798 136.829 223.691 137.491 223.478 138.088C223.265 138.685 222.923 139.197 222.454 139.624C222.006 140.072 221.43 140.413 220.726 140.648C220.043 140.883 219.233 141 218.294 141H211.702C210.87 141 210.145 140.915 209.526 140.744C208.907 140.595 208.385 140.36 207.958 140.04C207.553 139.741 207.243 139.357 207.03 138.888C206.817 138.419 206.71 137.885 206.71 137.288V136.712C206.71 136.072 206.849 135.507 207.126 135.016C207.403 134.525 207.787 134.12 208.278 133.8C208.769 133.48 209.345 133.267 210.006 133.16V131.976L212.342 133.384C212.001 133.491 211.734 133.64 211.542 133.832C211.35 134.024 211.211 134.237 211.126 134.472C211.041 134.728 210.998 135.016 210.998 135.336V136.328C210.998 136.691 211.051 136.989 211.158 137.224C211.286 137.459 211.467 137.629 211.702 137.736C211.958 137.843 212.299 137.896 212.726 137.896H217.814C218.006 137.896 218.187 137.885 218.358 137.864C218.529 137.843 218.678 137.789 218.806 137.704C218.934 137.64 219.041 137.576 219.126 137.512C219.275 137.363 219.382 137.16 219.446 136.904C219.51 136.648 219.542 136.371 219.542 136.072V135.208C219.542 134.611 219.414 134.184 219.158 133.928C218.902 133.672 218.454 133.544 217.814 133.544H212.022C211.531 133.544 211.062 133.416 210.614 133.16C210.187 132.904 209.835 132.552 209.558 132.104C209.281 131.656 209.142 131.155 209.142 130.6C209.142 129.875 209.345 129.245 209.75 128.712C210.177 128.179 210.817 127.773 211.67 127.496V126.248ZM234.602 115.4C236.052 115.4 237.311 115.699 238.378 116.296C239.466 116.893 240.308 117.725 240.906 118.792C241.503 119.859 241.802 121.107 241.802 122.536V125.192C241.802 125.256 241.791 125.32 241.77 125.384C241.748 125.427 241.706 125.459 241.642 125.48C241.599 125.501 241.546 125.512 241.482 125.512H234.122C233.759 125.512 233.386 125.512 233.002 125.512C232.639 125.512 232.276 125.512 231.914 125.512H230.602L230.506 122.824H237.61C237.61 122.739 237.61 122.664 237.61 122.6C237.61 122.536 237.61 122.461 237.61 122.376C237.61 121.757 237.546 121.235 237.418 120.808C237.29 120.36 237.087 120.008 236.81 119.752C236.575 119.496 236.276 119.315 235.914 119.208C235.551 119.101 235.114 119.048 234.602 119.048C233.535 119.048 232.735 119.315 232.202 119.848C231.69 120.36 231.434 121.203 231.434 122.376V126.28C231.434 126.792 231.498 127.251 231.626 127.656C231.775 128.04 231.978 128.371 232.234 128.648C232.575 128.989 233.023 129.235 233.578 129.384C234.154 129.533 234.815 129.608 235.562 129.608C236.33 129.608 237.012 129.576 237.61 129.512C238.207 129.427 238.762 129.32 239.274 129.192C239.786 129.043 240.287 128.883 240.778 128.712H241.385C241.385 129.245 241.385 129.789 241.385 130.344C241.385 130.877 241.385 131.421 241.385 131.976C241.385 132.019 241.375 132.061 241.354 132.104C241.332 132.147 241.3 132.189 241.258 132.232C241.087 132.403 240.703 132.573 240.106 132.744C239.53 132.915 238.826 133.064 237.994 133.192C237.183 133.32 236.351 133.384 235.498 133.384C234.111 133.384 232.884 133.224 231.818 132.904C230.772 132.563 229.898 132.083 229.194 131.464C228.511 130.845 227.988 130.099 227.626 129.224C227.284 128.328 227.114 127.325 227.114 126.216V122.568C227.114 121.48 227.284 120.499 227.626 119.624C227.988 118.749 228.5 118.003 229.161 117.384C229.823 116.744 230.612 116.253 231.53 115.912C232.447 115.571 233.471 115.4 234.602 115.4ZM250.045 130.888V128.712C250.045 128.349 250.045 127.997 250.045 127.656C250.045 127.293 250.045 126.931 250.045 126.568C250.045 126.184 250.045 125.821 250.045 125.48C250.045 124.819 250.045 124.157 250.045 123.496C250.045 122.835 250.045 122.173 250.045 121.512C250.045 120.851 250.045 120.2 250.045 119.56H249.437C248.989 119.56 248.52 119.56 248.029 119.56C247.56 119.56 247.112 119.56 246.685 119.56C246.578 119.56 246.493 119.528 246.429 119.464C246.365 119.4 246.333 119.315 246.333 119.208C246.333 118.632 246.333 118.067 246.333 117.512C246.333 116.936 246.333 116.36 246.333 115.784C246.568 115.784 246.845 115.784 247.165 115.784C247.485 115.784 247.816 115.784 248.157 115.784C248.52 115.784 248.893 115.784 249.277 115.784C249.661 115.784 250.066 115.784 250.493 115.784C250.92 115.784 251.346 115.784 251.773 115.784C252.221 115.784 252.658 115.784 253.085 115.784C253.085 115.784 253.128 115.912 253.213 116.168C253.298 116.424 253.405 116.744 253.533 117.128C253.661 117.512 253.789 117.907 253.917 118.312C254.045 118.696 254.152 119.048 254.237 119.368C254.322 119.667 254.365 119.848 254.365 119.912C254.365 120.808 254.365 121.715 254.365 122.632C254.365 123.528 254.365 124.435 254.365 125.352C254.365 126.269 254.365 127.197 254.365 128.136C254.365 129.075 254.365 130.013 254.365 130.952L250.045 130.888ZM253.437 119.08H254.589C255.144 118.013 255.858 117.149 256.733 116.488C257.608 115.805 258.685 115.464 259.965 115.464C260.477 115.464 260.882 115.507 261.181 115.592C261.501 115.677 261.725 115.784 261.853 115.912C261.896 115.933 261.917 115.976 261.917 116.04C261.938 116.083 261.949 116.147 261.949 116.232C261.949 116.936 261.949 117.629 261.949 118.312C261.949 118.995 261.949 119.688 261.949 120.392H261.341C260.872 120.243 260.445 120.147 260.061 120.104C259.698 120.04 259.272 120.008 258.781 120.008C258.205 120.008 257.608 120.093 256.989 120.264C256.392 120.435 255.826 120.691 255.293 121.032C254.76 121.352 254.269 121.779 253.821 122.312L253.437 119.08ZM246.141 129.224H259.325C259.432 129.224 259.506 129.245 259.549 129.288C259.592 129.309 259.624 129.341 259.645 129.384C259.688 129.427 259.709 129.491 259.709 129.576C259.709 129.981 259.709 130.365 259.709 130.728C259.709 131.091 259.709 131.464 259.709 131.848C259.709 132.211 259.709 132.595 259.709 133H246.493C246.386 133 246.301 132.968 246.237 132.904C246.173 132.84 246.141 132.755 246.141 132.648C246.141 132.243 246.141 131.859 246.141 131.496C246.141 131.112 246.141 130.739 246.141 130.376C246.141 130.013 246.141 129.629 246.141 129.224Z" fill="black"/>
</svg>
